<mxfile host="app.diagrams.net" modified="2023-03-25T06:38:04.636Z" agent="Mozilla/5.0 (Windows NT 10.0; Win64; x64) AppleWebKit/537.36 (KHTML, like Gecko) Chrome/111.0.0.0 Safari/537.36" etag="eYeds_d7xVUsVnfYC2uu" version="21.1.1" type="github">
  <diagram name="Страница 1" id="bCQILogSz7Zd9uqQqifb">
    <mxGraphModel dx="1087" dy="2129" grid="0" gridSize="10" guides="1" tooltips="1" connect="1" arrows="1" fold="1" page="0" pageScale="1" pageWidth="827" pageHeight="1169" math="0" shadow="0">
      <root>
        <mxCell id="0" />
        <mxCell id="1" parent="0" />
        <mxCell id="K-NvHZD64r7CuI1TDK3c-10" style="edgeStyle=none;curved=1;rounded=0;orthogonalLoop=1;jettySize=auto;html=1;fontSize=12;startSize=8;endSize=8;" edge="1" parent="1" source="K-NvHZD64r7CuI1TDK3c-6" target="K-NvHZD64r7CuI1TDK3c-9">
          <mxGeometry relative="1" as="geometry" />
        </mxCell>
        <mxCell id="K-NvHZD64r7CuI1TDK3c-14" style="edgeStyle=none;curved=1;rounded=0;orthogonalLoop=1;jettySize=auto;html=1;fontSize=12;startSize=8;endSize=8;" edge="1" parent="1" source="K-NvHZD64r7CuI1TDK3c-6" target="K-NvHZD64r7CuI1TDK3c-12">
          <mxGeometry relative="1" as="geometry" />
        </mxCell>
        <mxCell id="K-NvHZD64r7CuI1TDK3c-6" value="User&lt;br&gt;" style="shape=umlActor;verticalLabelPosition=bottom;verticalAlign=top;html=1;outlineConnect=0;fontSize=16;" vertex="1" parent="1">
          <mxGeometry x="-108" y="42" width="30" height="60" as="geometry" />
        </mxCell>
        <mxCell id="K-NvHZD64r7CuI1TDK3c-16" value="Авторизация" style="swimlane;whiteSpace=wrap;html=1;fontSize=16;" vertex="1" parent="1">
          <mxGeometry x="10" y="-163" width="309" height="341" as="geometry" />
        </mxCell>
        <mxCell id="K-NvHZD64r7CuI1TDK3c-12" value="Forgot Password" style="strokeWidth=2;html=1;shape=mxgraph.flowchart.start_1;whiteSpace=wrap;fontSize=16;fillColor=#d5e8d4;strokeColor=#82b366;" vertex="1" parent="K-NvHZD64r7CuI1TDK3c-16">
          <mxGeometry x="78" y="63" width="100" height="60" as="geometry" />
        </mxCell>
        <mxCell id="K-NvHZD64r7CuI1TDK3c-9" value="Login" style="strokeWidth=2;html=1;shape=mxgraph.flowchart.start_1;whiteSpace=wrap;fontSize=16;fillColor=#d5e8d4;strokeColor=#82b366;" vertex="1" parent="K-NvHZD64r7CuI1TDK3c-16">
          <mxGeometry x="74" y="208" width="100" height="60" as="geometry" />
        </mxCell>
        <mxCell id="K-NvHZD64r7CuI1TDK3c-45" style="edgeStyle=none;curved=1;rounded=0;orthogonalLoop=1;jettySize=auto;html=1;fontSize=12;startSize=8;endSize=8;" edge="1" parent="1" source="K-NvHZD64r7CuI1TDK3c-20" target="K-NvHZD64r7CuI1TDK3c-44">
          <mxGeometry relative="1" as="geometry" />
        </mxCell>
        <mxCell id="K-NvHZD64r7CuI1TDK3c-20" value="Поиск продукта" style="swimlane;whiteSpace=wrap;html=1;fontSize=16;" vertex="1" parent="1">
          <mxGeometry x="476" y="-163" width="309" height="341" as="geometry" />
        </mxCell>
        <mxCell id="K-NvHZD64r7CuI1TDK3c-17" value="Сканирование штрих-кода продукта" style="strokeWidth=2;html=1;shape=mxgraph.flowchart.start_1;whiteSpace=wrap;fontSize=16;fillColor=#d5e8d4;strokeColor=#82b366;" vertex="1" parent="K-NvHZD64r7CuI1TDK3c-20">
          <mxGeometry x="53" y="56" width="214" height="77" as="geometry" />
        </mxCell>
        <mxCell id="K-NvHZD64r7CuI1TDK3c-23" value="Голосовой ввод имени продукта" style="strokeWidth=2;html=1;shape=mxgraph.flowchart.start_1;whiteSpace=wrap;fontSize=16;fillColor=#dae8fc;strokeColor=#6c8ebf;" vertex="1" parent="K-NvHZD64r7CuI1TDK3c-20">
          <mxGeometry x="57" y="156" width="214" height="77" as="geometry" />
        </mxCell>
        <mxCell id="K-NvHZD64r7CuI1TDK3c-24" value="Фото или скан упаковки продукта" style="strokeWidth=2;html=1;shape=mxgraph.flowchart.start_1;whiteSpace=wrap;fontSize=16;fillColor=#dae8fc;strokeColor=#6c8ebf;" vertex="1" parent="K-NvHZD64r7CuI1TDK3c-20">
          <mxGeometry x="57" y="246" width="214" height="77" as="geometry" />
        </mxCell>
        <mxCell id="K-NvHZD64r7CuI1TDK3c-28" style="edgeStyle=none;curved=1;rounded=0;orthogonalLoop=1;jettySize=auto;html=1;fontSize=12;startSize=8;endSize=8;" edge="1" parent="1" source="K-NvHZD64r7CuI1TDK3c-9" target="K-NvHZD64r7CuI1TDK3c-17">
          <mxGeometry relative="1" as="geometry" />
        </mxCell>
        <mxCell id="K-NvHZD64r7CuI1TDK3c-29" style="edgeStyle=none;curved=1;rounded=0;orthogonalLoop=1;jettySize=auto;html=1;fontSize=12;startSize=8;endSize=8;" edge="1" parent="1" source="K-NvHZD64r7CuI1TDK3c-9" target="K-NvHZD64r7CuI1TDK3c-23">
          <mxGeometry relative="1" as="geometry" />
        </mxCell>
        <mxCell id="K-NvHZD64r7CuI1TDK3c-30" style="edgeStyle=none;curved=1;rounded=0;orthogonalLoop=1;jettySize=auto;html=1;fontSize=12;startSize=8;endSize=8;" edge="1" parent="1" source="K-NvHZD64r7CuI1TDK3c-9" target="K-NvHZD64r7CuI1TDK3c-24">
          <mxGeometry relative="1" as="geometry" />
        </mxCell>
        <mxCell id="K-NvHZD64r7CuI1TDK3c-32" value="Получение информация о продукте" style="swimlane;whiteSpace=wrap;html=1;fontSize=16;" vertex="1" parent="1">
          <mxGeometry x="1200" y="-356.5" width="345" height="630.5" as="geometry" />
        </mxCell>
        <mxCell id="K-NvHZD64r7CuI1TDK3c-34" value="Подлинность (по штрих-коду)" style="strokeWidth=2;html=1;shape=mxgraph.flowchart.start_1;whiteSpace=wrap;fontSize=16;fillColor=#d5e8d4;strokeColor=#82b366;" vertex="1" parent="K-NvHZD64r7CuI1TDK3c-32">
          <mxGeometry x="36" y="36" width="273" height="77" as="geometry" />
        </mxCell>
        <mxCell id="K-NvHZD64r7CuI1TDK3c-35" value="Е-добавки" style="strokeWidth=2;html=1;shape=mxgraph.flowchart.start_1;whiteSpace=wrap;fontSize=16;fillColor=#d5e8d4;strokeColor=#82b366;" vertex="1" parent="K-NvHZD64r7CuI1TDK3c-32">
          <mxGeometry x="36" y="132" width="273" height="77" as="geometry" />
        </mxCell>
        <mxCell id="K-NvHZD64r7CuI1TDK3c-36" value="Состав продукта" style="strokeWidth=2;html=1;shape=mxgraph.flowchart.start_1;whiteSpace=wrap;fontSize=16;fillColor=#d5e8d4;strokeColor=#82b366;" vertex="1" parent="K-NvHZD64r7CuI1TDK3c-32">
          <mxGeometry x="36" y="231" width="273" height="77" as="geometry" />
        </mxCell>
        <mxCell id="K-NvHZD64r7CuI1TDK3c-39" value="Уровень безапасности продукта" style="strokeWidth=2;html=1;shape=mxgraph.flowchart.start_1;whiteSpace=wrap;fontSize=16;fillColor=#fff2cc;strokeColor=#d6b656;" vertex="1" parent="K-NvHZD64r7CuI1TDK3c-32">
          <mxGeometry x="44" y="330" width="273" height="77" as="geometry" />
        </mxCell>
        <mxCell id="K-NvHZD64r7CuI1TDK3c-40" value="Качество продукта" style="strokeWidth=2;html=1;shape=mxgraph.flowchart.start_1;whiteSpace=wrap;fontSize=16;fillColor=#dae8fc;strokeColor=#6c8ebf;" vertex="1" parent="K-NvHZD64r7CuI1TDK3c-32">
          <mxGeometry x="44" y="423" width="273" height="77" as="geometry" />
        </mxCell>
        <mxCell id="K-NvHZD64r7CuI1TDK3c-90" value="Обратный отзыв о качестве выданной информации" style="strokeWidth=2;html=1;shape=mxgraph.flowchart.start_1;whiteSpace=wrap;fontSize=16;fillColor=#dae8fc;strokeColor=#6c8ebf;" vertex="1" parent="K-NvHZD64r7CuI1TDK3c-32">
          <mxGeometry x="44" y="525.5" width="273" height="77" as="geometry" />
        </mxCell>
        <mxCell id="K-NvHZD64r7CuI1TDK3c-46" style="edgeStyle=none;curved=1;rounded=0;orthogonalLoop=1;jettySize=auto;html=1;fontSize=12;startSize=8;endSize=8;" edge="1" parent="1" source="K-NvHZD64r7CuI1TDK3c-44" target="K-NvHZD64r7CuI1TDK3c-32">
          <mxGeometry relative="1" as="geometry" />
        </mxCell>
        <mxCell id="K-NvHZD64r7CuI1TDK3c-64" style="edgeStyle=none;curved=1;rounded=0;orthogonalLoop=1;jettySize=auto;html=1;fontSize=12;startSize=8;endSize=8;" edge="1" parent="1" source="K-NvHZD64r7CuI1TDK3c-44" target="K-NvHZD64r7CuI1TDK3c-51">
          <mxGeometry relative="1" as="geometry">
            <Array as="points">
              <mxPoint x="981" y="-421" />
            </Array>
          </mxGeometry>
        </mxCell>
        <mxCell id="K-NvHZD64r7CuI1TDK3c-44" value="Нахождение товара" style="strokeWidth=2;html=1;shape=mxgraph.flowchart.start_1;whiteSpace=wrap;fontSize=16;fillColor=#d5e8d4;strokeColor=#82b366;" vertex="1" parent="1">
          <mxGeometry x="874" y="-39" width="214" height="77" as="geometry" />
        </mxCell>
        <mxCell id="K-NvHZD64r7CuI1TDK3c-48" value="Описание Е-добавок" style="swimlane;whiteSpace=wrap;html=1;fontSize=16;" vertex="1" parent="1">
          <mxGeometry x="1664" y="-544.5" width="361" height="717" as="geometry" />
        </mxCell>
        <mxCell id="K-NvHZD64r7CuI1TDK3c-49" value="Уровень вреда элемента" style="strokeWidth=2;html=1;shape=mxgraph.flowchart.start_1;whiteSpace=wrap;fontSize=16;fillColor=#d5e8d4;strokeColor=#82b366;" vertex="1" parent="K-NvHZD64r7CuI1TDK3c-48">
          <mxGeometry x="44" y="43" width="273" height="77" as="geometry" />
        </mxCell>
        <mxCell id="K-NvHZD64r7CuI1TDK3c-50" value="Происхождение" style="strokeWidth=2;html=1;shape=mxgraph.flowchart.start_1;whiteSpace=wrap;fontSize=16;fillColor=#d5e8d4;strokeColor=#82b366;" vertex="1" parent="K-NvHZD64r7CuI1TDK3c-48">
          <mxGeometry x="44" y="136" width="273" height="77" as="geometry" />
        </mxCell>
        <mxCell id="K-NvHZD64r7CuI1TDK3c-57" value="Категория" style="strokeWidth=2;html=1;shape=mxgraph.flowchart.start_1;whiteSpace=wrap;fontSize=16;fillColor=#d5e8d4;strokeColor=#82b366;" vertex="1" parent="K-NvHZD64r7CuI1TDK3c-48">
          <mxGeometry x="44" y="229" width="273" height="77" as="geometry" />
        </mxCell>
        <mxCell id="K-NvHZD64r7CuI1TDK3c-58" value="Дневная норма" style="strokeWidth=2;html=1;shape=mxgraph.flowchart.start_1;whiteSpace=wrap;fontSize=16;fillColor=#d5e8d4;strokeColor=#82b366;" vertex="1" parent="K-NvHZD64r7CuI1TDK3c-48">
          <mxGeometry x="44" y="322" width="273" height="77" as="geometry" />
        </mxCell>
        <mxCell id="K-NvHZD64r7CuI1TDK3c-60" value="Легальность" style="strokeWidth=2;html=1;shape=mxgraph.flowchart.start_1;whiteSpace=wrap;fontSize=16;fillColor=#d5e8d4;strokeColor=#82b366;" vertex="1" parent="K-NvHZD64r7CuI1TDK3c-48">
          <mxGeometry x="44" y="421" width="273" height="77" as="geometry" />
        </mxCell>
        <mxCell id="K-NvHZD64r7CuI1TDK3c-61" value="Польза" style="strokeWidth=2;html=1;shape=mxgraph.flowchart.start_1;whiteSpace=wrap;fontSize=16;fillColor=#d5e8d4;strokeColor=#82b366;" vertex="1" parent="K-NvHZD64r7CuI1TDK3c-48">
          <mxGeometry x="44" y="518" width="273" height="77" as="geometry" />
        </mxCell>
        <mxCell id="K-NvHZD64r7CuI1TDK3c-62" value="Вред" style="strokeWidth=2;html=1;shape=mxgraph.flowchart.start_1;whiteSpace=wrap;fontSize=16;fillColor=#d5e8d4;strokeColor=#82b366;" vertex="1" parent="K-NvHZD64r7CuI1TDK3c-48">
          <mxGeometry x="44" y="615" width="273" height="77" as="geometry" />
        </mxCell>
        <mxCell id="K-NvHZD64r7CuI1TDK3c-51" value="Сравнивание продуктов" style="swimlane;whiteSpace=wrap;html=1;fontSize=16;" vertex="1" parent="1">
          <mxGeometry x="1195" y="-814" width="345" height="417" as="geometry" />
        </mxCell>
        <mxCell id="K-NvHZD64r7CuI1TDK3c-53" value="Удаление из сравнивания" style="strokeWidth=2;html=1;shape=mxgraph.flowchart.start_1;whiteSpace=wrap;fontSize=16;fillColor=#d5e8d4;strokeColor=#82b366;" vertex="1" parent="K-NvHZD64r7CuI1TDK3c-51">
          <mxGeometry x="36" y="132" width="273" height="77" as="geometry" />
        </mxCell>
        <mxCell id="K-NvHZD64r7CuI1TDK3c-54" value="Очистка списка сравниваемых продуктов" style="strokeWidth=2;html=1;shape=mxgraph.flowchart.start_1;whiteSpace=wrap;fontSize=16;fillColor=#d5e8d4;strokeColor=#82b366;" vertex="1" parent="K-NvHZD64r7CuI1TDK3c-51">
          <mxGeometry x="36" y="231" width="273" height="77" as="geometry" />
        </mxCell>
        <mxCell id="K-NvHZD64r7CuI1TDK3c-63" value="Подробное описание конкретного продукта" style="strokeWidth=2;html=1;shape=mxgraph.flowchart.start_1;whiteSpace=wrap;fontSize=16;fillColor=#d5e8d4;strokeColor=#82b366;" vertex="1" parent="K-NvHZD64r7CuI1TDK3c-51">
          <mxGeometry x="36" y="321" width="273" height="77" as="geometry" />
        </mxCell>
        <mxCell id="K-NvHZD64r7CuI1TDK3c-52" value="Безопасность" style="strokeWidth=2;html=1;shape=mxgraph.flowchart.start_1;whiteSpace=wrap;fontSize=16;fillColor=#d5e8d4;strokeColor=#82b366;" vertex="1" parent="K-NvHZD64r7CuI1TDK3c-51">
          <mxGeometry x="36" y="38" width="273" height="77" as="geometry" />
        </mxCell>
        <mxCell id="K-NvHZD64r7CuI1TDK3c-65" style="edgeStyle=none;curved=1;rounded=0;orthogonalLoop=1;jettySize=auto;html=1;fontSize=12;startSize=8;endSize=8;" edge="1" parent="1" source="K-NvHZD64r7CuI1TDK3c-35" target="K-NvHZD64r7CuI1TDK3c-48">
          <mxGeometry relative="1" as="geometry" />
        </mxCell>
        <mxCell id="K-NvHZD64r7CuI1TDK3c-66" value="Настройки" style="swimlane;whiteSpace=wrap;html=1;fontSize=16;" vertex="1" parent="1">
          <mxGeometry x="476" y="-919" width="309" height="730" as="geometry" />
        </mxCell>
        <mxCell id="K-NvHZD64r7CuI1TDK3c-67" value="Изменение личных данных" style="strokeWidth=2;html=1;shape=mxgraph.flowchart.start_1;whiteSpace=wrap;fontSize=16;fillColor=#d5e8d4;strokeColor=#82b366;" vertex="1" parent="K-NvHZD64r7CuI1TDK3c-66">
          <mxGeometry x="53" y="56" width="214" height="77" as="geometry" />
        </mxCell>
        <mxCell id="K-NvHZD64r7CuI1TDK3c-70" value="Изменение пароля" style="strokeWidth=2;html=1;shape=mxgraph.flowchart.start_1;whiteSpace=wrap;fontSize=16;fillColor=#d5e8d4;strokeColor=#82b366;" vertex="1" parent="K-NvHZD64r7CuI1TDK3c-66">
          <mxGeometry x="55" y="149" width="214" height="77" as="geometry" />
        </mxCell>
        <mxCell id="K-NvHZD64r7CuI1TDK3c-72" value="Изменение почты" style="strokeWidth=2;html=1;shape=mxgraph.flowchart.start_1;whiteSpace=wrap;fontSize=16;fillColor=#d5e8d4;strokeColor=#82b366;" vertex="1" parent="K-NvHZD64r7CuI1TDK3c-66">
          <mxGeometry x="53" y="245" width="214" height="77" as="geometry" />
        </mxCell>
        <mxCell id="K-NvHZD64r7CuI1TDK3c-73" value="Получение информации о программе, и контакты разработчиков для обратной связи" style="strokeWidth=2;html=1;shape=mxgraph.flowchart.start_1;whiteSpace=wrap;fontSize=16;fillColor=#d5e8d4;strokeColor=#82b366;" vertex="1" parent="K-NvHZD64r7CuI1TDK3c-66">
          <mxGeometry x="39.5" y="430" width="230" height="195" as="geometry" />
        </mxCell>
        <mxCell id="K-NvHZD64r7CuI1TDK3c-74" value="Выход из аккаунта" style="strokeWidth=2;html=1;shape=mxgraph.flowchart.start_1;whiteSpace=wrap;fontSize=16;fillColor=#d5e8d4;strokeColor=#82b366;" vertex="1" parent="K-NvHZD64r7CuI1TDK3c-66">
          <mxGeometry x="53" y="639" width="214" height="77" as="geometry" />
        </mxCell>
        <mxCell id="K-NvHZD64r7CuI1TDK3c-77" value="Смена темы приложения" style="strokeWidth=2;html=1;shape=mxgraph.flowchart.start_1;whiteSpace=wrap;fontSize=16;fillColor=#d5e8d4;strokeColor=#82b366;" vertex="1" parent="K-NvHZD64r7CuI1TDK3c-66">
          <mxGeometry x="55" y="338" width="214" height="77" as="geometry" />
        </mxCell>
        <mxCell id="K-NvHZD64r7CuI1TDK3c-76" style="edgeStyle=none;curved=1;rounded=0;orthogonalLoop=1;jettySize=auto;html=1;fontSize=12;startSize=8;endSize=8;" edge="1" parent="1" source="K-NvHZD64r7CuI1TDK3c-9" target="K-NvHZD64r7CuI1TDK3c-66">
          <mxGeometry relative="1" as="geometry" />
        </mxCell>
        <mxCell id="K-NvHZD64r7CuI1TDK3c-78" value="Частично сделано" style="ellipse;whiteSpace=wrap;html=1;fontSize=16;fillColor=#fff2cc;strokeColor=#d6b656;" vertex="1" parent="1">
          <mxGeometry x="6" y="239" width="120" height="80" as="geometry" />
        </mxCell>
        <mxCell id="K-NvHZD64r7CuI1TDK3c-79" value="На будущее" style="ellipse;whiteSpace=wrap;html=1;fontSize=16;fillColor=#dae8fc;strokeColor=#6c8ebf;" vertex="1" parent="1">
          <mxGeometry x="172" y="239" width="120" height="80" as="geometry" />
        </mxCell>
        <mxCell id="K-NvHZD64r7CuI1TDK3c-80" value="Полностью сделано" style="ellipse;whiteSpace=wrap;html=1;fontSize=16;fillColor=#d5e8d4;strokeColor=#82b366;" vertex="1" parent="1">
          <mxGeometry x="-149" y="239" width="120" height="80" as="geometry" />
        </mxCell>
        <mxCell id="K-NvHZD64r7CuI1TDK3c-81" value="История поиска" style="swimlane;whiteSpace=wrap;html=1;fontSize=16;" vertex="1" parent="1">
          <mxGeometry x="478" y="245" width="309" height="341" as="geometry" />
        </mxCell>
        <mxCell id="K-NvHZD64r7CuI1TDK3c-82" value="Краткое описание о продукте" style="strokeWidth=2;html=1;shape=mxgraph.flowchart.start_1;whiteSpace=wrap;fontSize=16;fillColor=#d5e8d4;strokeColor=#82b366;" vertex="1" parent="K-NvHZD64r7CuI1TDK3c-81">
          <mxGeometry x="53" y="56" width="214" height="77" as="geometry" />
        </mxCell>
        <mxCell id="K-NvHZD64r7CuI1TDK3c-87" value="Подробное описание конкретного продукта" style="strokeWidth=2;html=1;shape=mxgraph.flowchart.start_1;whiteSpace=wrap;fontSize=16;fillColor=#d5e8d4;strokeColor=#82b366;" vertex="1" parent="K-NvHZD64r7CuI1TDK3c-81">
          <mxGeometry x="21.5" y="175" width="273" height="77" as="geometry" />
        </mxCell>
        <mxCell id="K-NvHZD64r7CuI1TDK3c-86" style="edgeStyle=none;curved=1;rounded=0;orthogonalLoop=1;jettySize=auto;html=1;fontSize=12;startSize=8;endSize=8;" edge="1" parent="1" source="K-NvHZD64r7CuI1TDK3c-63" target="K-NvHZD64r7CuI1TDK3c-32">
          <mxGeometry relative="1" as="geometry" />
        </mxCell>
        <mxCell id="K-NvHZD64r7CuI1TDK3c-89" style="edgeStyle=none;curved=1;rounded=0;orthogonalLoop=1;jettySize=auto;html=1;entryX=0;entryY=1;entryDx=0;entryDy=0;fontSize=12;startSize=8;endSize=8;" edge="1" parent="1" source="K-NvHZD64r7CuI1TDK3c-87" target="K-NvHZD64r7CuI1TDK3c-32">
          <mxGeometry relative="1" as="geometry" />
        </mxCell>
      </root>
    </mxGraphModel>
  </diagram>
</mxfile>
